C:\GBW_MyPrograms\KinderuniversiteitApp\Resultaten\Ellis_v10102025\Volwassenen\Volwassenen_v2.mot
version=1
nRows=9
nColumns=29
inDegrees=yes
endheader
                time	         pelvis_tilt	           pelvis_tx	           pelvis_ty	       hip_flexion_l	       hip_flexion_r	        knee_angle_l	        knee_angle_r	       ankle_angle_l	       ankle_angle_r	    lumbar_extension	hamstrings_r/activation	bifemsh_r/activation	glut_max_r/activation	iliopsoas_r/activation	rect_fem_r/activation	  vasti_r/activation	gastroc_r/activation	 soleus_r/activation	tib_ant_r/activation	hamstrings_l/activation	bifemsh_l/activation	glut_max_l/activation	iliopsoas_l/activation	rect_fem_l/activation	  vasti_l/activation	gastroc_l/activation	 soleus_l/activation	tib_ant_l/activation	
          3.00000000	         -4.95333919	          3.57228273	          1.02550915	         23.85164071	         -9.01784516	        -11.03487916	        -15.14910363	          6.80094797	          0.96061863	         -1.99010650	          0.05000000	          0.07458385	          0.05088054	          0.65837052	          0.11942666	          0.06861617	          0.13322585	          0.25363854	          0.05000000	          0.30731645	          0.05000000	          0.10399519	          0.05000000	          0.08161337	          0.05048154	          0.05000000	          0.05000000	          0.24149124	
          3.02000000	         -5.03510846	          3.60020532	          1.02407090	         22.18922955	         -8.04941737	        -10.15446320	        -19.39822569	          6.74316765	         -0.73769286	         -1.41983018	          0.05000002	          0.05593790	          0.05000000	          0.51699590	          0.08956999	          0.05146213	          0.09991939	          0.19022890	          0.05000000	          0.25382394	          0.05000002	          0.11216058	          0.05000000	          0.06121003	          0.15971898	          0.05000001	          0.06136452	          0.25446067	
          3.04000000	         -5.09213753	          3.62746469	          1.02274366	         20.45529133	         -6.00061662	         -9.78812644	        -25.36853277	          6.53369059	         -3.15572556	         -0.95019642	          0.05000000	          0.05000000	          0.05000000	          0.40882644	          0.07101285	          0.05000000	          0.07493954	          0.14267168	          0.23247793	          0.19036796	          0.05000000	          0.15175023	          0.05000000	          0.05000007	          0.22159951	          0.05000000	          0.05000000	          0.30806020	
          3.06000000	         -5.12956006	          3.65284306	          1.02237382	         19.02138264	         -3.36485626	         -9.82100660	        -31.64946812	          6.61151071	         -3.53234311	         -0.71583321	          0.05000000	          0.11873417	          0.05000000	          0.30661983	          0.19625596	          0.05000000	          0.06509687	          0.10700376	          0.27068411	          0.14371189	          0.05000001	          0.14507112	          0.05000000	          0.05000002	          0.26230944	          0.05000000	          0.05000000	          0.31847017	
          3.08000000	         -5.16208662	          3.67663052	          1.02356146	         17.76490339	         -0.64960148	        -10.03455412	        -36.76317332	          6.90855689	         -2.83287823	         -0.66502495	          0.06407313	          0.20151357	          0.05000000	          0.22996487	          0.29911153	          0.05000000	          0.07479318	          0.08025282	          0.24957223	          0.11764753	          0.05000001	          0.13993520	          0.05000000	          0.05000001	          0.26613341	          0.05000000	          0.05000000	          0.30122974	
          3.10000000	         -5.18794990	          3.69953681	          1.02597099	         16.34364210	          1.95110482	         -9.88502673	        -40.37169228	          7.37811254	         -1.80364692	         -0.71901806	          0.07075008	          0.29623303	          0.05000000	          0.17815428	          0.34544794	          0.05000000	          0.07424386	          0.06018961	          0.22413625	          0.10466138	          0.05000002	          0.13682503	          0.05000000	          0.05000000	          0.22687704	          0.05000000	          0.05000000	          0.27802475	
          3.12000000	         -5.19952795	          3.72187436	          1.02891400	         14.70861118	          4.46725349	         -9.31803413	        -42.76222838	          7.86694620	         -0.63917921	         -0.85291482	          0.05306260	          0.40157081	          0.05000000	          0.14902432	          0.34370122	          0.05000000	          0.06112745	          0.05000000	          0.20001568	          0.09875416	          0.05000001	          0.13386679	          0.05000000	          0.05000000	          0.18636235	          0.05000000	          0.05000000	          0.25719061	
          3.14000000	         -5.18825706	          3.74372941	          1.03176727	         12.93677054	          7.00049019	         -8.48921783	        -44.38413632	          8.28433118	          0.50118058	         -1.06873808	          0.05000000	          0.50167358	          0.05000000	          0.13536920	          0.31854952	          0.05000000	          0.05000000	          0.05000000	          0.19086287	          0.08961787	          0.05000001	          0.12185091	          0.05000000	          0.05000000	          0.16094144	          0.05000000	          0.05000000	          0.24227366	
          3.16000000	         -5.14751041	          3.76513211	          1.03408904	         11.09142516	          9.65900659	         -7.52855963	        -45.70542568	          8.63282953	          1.51807296	         -1.37218503	          0.05000000	          0.56072516	          0.05000000	          0.12841173	          0.28642986	          0.05000000	          0.05000000	          0.05000000	          0.19201560	          0.07726853	          0.05000000	          0.10638243	          0.05000000	          0.05000001	          0.14706305	          0.05000000	          0.05000000	          0.23044009	
